HIERARCHY
ROOT Hips
{
	OFFSET 0.000000 97.167313 0.000000
	CHANNELS 6 Xposition Yposition Zposition Xrotation Yrotation Zrotation
	JOINT Spine
	{
		OFFSET 0.000000 13.784798 0.064400
		CHANNELS 3 Xrotation Yrotation Zrotation
		JOINT Spine1
		{
			OFFSET 0.000000 12.037903 0.404700
			CHANNELS 3 Xrotation Yrotation Zrotation
			JOINT Spine2
			{
				OFFSET 0.000000 17.795601 0.420200
				CHANNELS 3 Xrotation Yrotation Zrotation
				JOINT Neck
				{
					OFFSET 0.000000 39.131302 11.954600
					CHANNELS 3 Xrotation Yrotation Zrotation
					JOINT Head
					{
						OFFSET 0.000000 14.456192 15.627699
						CHANNELS 3 Xrotation Yrotation Zrotation
						JOINT HeadTop_End
						{
							OFFSET 0.000000 15.703506 7.603401
							CHANNELS 3 Xrotation Yrotation Zrotation
							End Site
							{
								OFFSET 0.000000 17.447403 0.000000
							}
						}
					}
				}
				JOINT LeftShoulder
				{
					OFFSET 17.399500 24.608795 1.168800
					CHANNELS 3 Xrotation Yrotation Zrotation
					JOINT LeftArm
					{
						OFFSET 18.980635 5.765305 1.818600
						CHANNELS 3 Xrotation Yrotation Zrotation
						JOINT LeftForeArm
						{
							OFFSET 49.290169 0.000000 0.000000
							CHANNELS 3 Xrotation Yrotation Zrotation
							JOINT LeftHand
							{
								OFFSET 31.562012 0.000000 0.000000
								CHANNELS 3 Xrotation Yrotation Zrotation
								JOINT LeftHandThumb1
								{
									OFFSET 6.133995 -4.388519 7.076070
									CHANNELS 3 Xrotation Yrotation Zrotation
									JOINT LeftHandThumb2
									{
										OFFSET 6.037666 -3.485840 3.485847
										CHANNELS 3 Xrotation Yrotation Zrotation
										JOINT LeftHandThumb3
										{
											OFFSET 6.496506 -3.750763 3.750761
											CHANNELS 3 Xrotation Yrotation Zrotation
											JOINT LeftHandThumb4
											{
												OFFSET 5.616882 -3.242905 3.242910
												CHANNELS 3 Xrotation Yrotation Zrotation
												End Site
												{
													OFFSET -1.254608 7.132141 0.375429
												}
											}
										}
									}
								}
								JOINT LeftHandPinky1
								{
									OFFSET 18.920792 -0.453171 -11.426712
									CHANNELS 3 Xrotation Yrotation Zrotation
									JOINT LeftHandPinky2
									{
										OFFSET 4.919586 0.000000 0.000000
										CHANNELS 3 Xrotation Yrotation Zrotation
										JOINT LeftHandPinky3
										{
											OFFSET 5.233047 0.000000 0.000000
											CHANNELS 3 Xrotation Yrotation Zrotation
											JOINT LeftHandPinky4
											{
												OFFSET 5.571716 0.000000 0.000000
												CHANNELS 3 Xrotation Yrotation Zrotation
												End Site
												{
													OFFSET -3.459808 4.342407 -0.466164
												}
											}
										}
									}
								}
								JOINT LeftHandRing1
								{
									OFFSET 22.726120 -0.094986 -6.500475
									CHANNELS 3 Xrotation Yrotation Zrotation
									JOINT LeftHandRing2
									{
										OFFSET 6.408615 0.000000 0.000000
										CHANNELS 3 Xrotation Yrotation Zrotation
										JOINT LeftHandRing3
										{
											OFFSET 6.150223 0.000000 0.000000
											CHANNELS 3 Xrotation Yrotation Zrotation
											JOINT LeftHandRing4
											{
												OFFSET 6.145386 0.000000 0.000000
												CHANNELS 3 Xrotation Yrotation Zrotation
												End Site
												{
													OFFSET -3.671402 4.923981 -0.202372
												}
											}
										}
									}
								}
								JOINT LeftHandMiddle1
								{
									OFFSET 23.373947 0.000000 0.000001
									CHANNELS 3 Xrotation Yrotation Zrotation
									JOINT LeftHandMiddle2
									{
										OFFSET 6.996567 0.000000 0.000000
										CHANNELS 3 Xrotation Yrotation Zrotation
										JOINT LeftHandMiddle3
										{
											OFFSET 7.015945 0.000000 0.000000
											CHANNELS 3 Xrotation Yrotation Zrotation
											JOINT LeftHandMiddle4
											{
												OFFSET 7.721573 0.000000 0.000000
												CHANNELS 3 Xrotation Yrotation Zrotation
												End Site
												{
													OFFSET -4.651108 6.158463 0.251582
												}
											}
										}
									}
								}
								JOINT LeftHandIndex1
								{
									OFFSET 21.310577 -0.490082 6.209344
									CHANNELS 3 Xrotation Yrotation Zrotation
									JOINT LeftHandIndex2
									{
										OFFSET 7.536453 0.000000 0.000000
										CHANNELS 3 Xrotation Yrotation Zrotation
										JOINT LeftHandIndex3
										{
											OFFSET 7.512344 0.000000 0.000000
											CHANNELS 3 Xrotation Yrotation Zrotation
											JOINT LeftHandIndex4
											{
												OFFSET 10.212402 0.000000 0.000001
												CHANNELS 3 Xrotation Yrotation Zrotation
												End Site
												{
													OFFSET -5.180801 8.690506 1.388433
												}
											}
										}
									}
								}
							}
						}
					}
				}
				JOINT RightShoulder
				{
					OFFSET -17.399500 24.608795 1.168800
					CHANNELS 3 Xrotation Yrotation Zrotation
					JOINT RightArm
					{
						OFFSET -18.980635 5.765305 1.818600
						CHANNELS 3 Xrotation Yrotation Zrotation
						JOINT RightForeArm
						{
							OFFSET -49.290169 0.000000 0.000000
							CHANNELS 3 Xrotation Yrotation Zrotation
							JOINT RightHand
							{
								OFFSET -31.562012 0.000000 0.000000
								CHANNELS 3 Xrotation Yrotation Zrotation
								JOINT RightHandThumb1
								{
									OFFSET -6.133995 -4.388519 7.076070
									CHANNELS 3 Xrotation Yrotation Zrotation
									JOINT RightHandThumb2
									{
										OFFSET -6.037666 -3.485840 3.485847
										CHANNELS 3 Xrotation Yrotation Zrotation
										JOINT RightHandThumb3
										{
											OFFSET -6.496506 -3.750763 3.750761
											CHANNELS 3 Xrotation Yrotation Zrotation
											JOINT RightHandThumb4
											{
												OFFSET -5.616882 -3.242905 3.242910
												CHANNELS 3 Xrotation Yrotation Zrotation
												End Site
												{
													OFFSET 1.254608 7.132141 0.375429
												}
											}
										}
									}
								}
								JOINT RightHandIndex1
								{
									OFFSET -21.310577 -0.490082 6.209344
									CHANNELS 3 Xrotation Yrotation Zrotation
									JOINT RightHandIndex2
									{
										OFFSET -7.536453 0.000000 0.000000
										CHANNELS 3 Xrotation Yrotation Zrotation
										JOINT RightHandIndex3
										{
											OFFSET -7.512344 0.000000 0.000000
											CHANNELS 3 Xrotation Yrotation Zrotation
											JOINT RightHandIndex4
											{
												OFFSET -10.212402 0.000000 0.000001
												CHANNELS 3 Xrotation Yrotation Zrotation
												End Site
												{
													OFFSET 5.180801 8.690506 1.388433
												}
											}
										}
									}
								}
								JOINT RightHandMiddle1
								{
									OFFSET -23.373947 0.000000 0.000001
									CHANNELS 3 Xrotation Yrotation Zrotation
									JOINT RightHandMiddle2
									{
										OFFSET -6.996567 0.000000 0.000000
										CHANNELS 3 Xrotation Yrotation Zrotation
										JOINT RightHandMiddle3
										{
											OFFSET -7.015945 0.000000 0.000000
											CHANNELS 3 Xrotation Yrotation Zrotation
											JOINT RightHandMiddle4
											{
												OFFSET -7.721573 0.000000 0.000000
												CHANNELS 3 Xrotation Yrotation Zrotation
												End Site
												{
													OFFSET 4.651108 6.158463 0.251582
												}
											}
										}
									}
								}
								JOINT RightHandRing1
								{
									OFFSET -22.726120 -0.094986 -6.500475
									CHANNELS 3 Xrotation Yrotation Zrotation
									JOINT RightHandRing2
									{
										OFFSET -6.408615 0.000000 0.000000
										CHANNELS 3 Xrotation Yrotation Zrotation
										JOINT RightHandRing3
										{
											OFFSET -6.150223 0.000000 0.000000
											CHANNELS 3 Xrotation Yrotation Zrotation
											JOINT RightHandRing4
											{
												OFFSET -6.145386 0.000000 0.000000
												CHANNELS 3 Xrotation Yrotation Zrotation
												End Site
												{
													OFFSET 3.671402 4.923981 -0.202372
												}
											}
										}
									}
								}
								JOINT RightHandPinky1
								{
									OFFSET -18.920792 -0.453171 -11.426712
									CHANNELS 3 Xrotation Yrotation Zrotation
									JOINT RightHandPinky2
									{
										OFFSET -4.919586 0.000000 0.000000
										CHANNELS 3 Xrotation Yrotation Zrotation
										JOINT RightHandPinky3
										{
											OFFSET -5.233047 0.000000 0.000000
											CHANNELS 3 Xrotation Yrotation Zrotation
											JOINT RightHandPinky4
											{
												OFFSET -5.571716 0.000000 0.000000
												CHANNELS 3 Xrotation Yrotation Zrotation
												End Site
												{
													OFFSET 3.459808 4.342407 -0.466164
												}
											}
										}
									}
								}
							}
						}
					}
				}
			}
		}
	}
	JOINT LeftUpLeg
	{
		OFFSET 19.899099 -7.885101 -3.429500
		CHANNELS 3 Xrotation Yrotation Zrotation
		JOINT LeftLeg
		{
			OFFSET 1.745560 -36.997807 10.304700
			CHANNELS 3 Xrotation Yrotation Zrotation
			JOINT LeftFoot
			{
				OFFSET -1.745558 -29.803308 -13.615400
				CHANNELS 3 Xrotation Yrotation Zrotation
				JOINT LeftToeBase
				{
					OFFSET 1.181900 -18.539904 15.226099
					CHANNELS 3 Xrotation Yrotation Zrotation
					JOINT LeftToe_End
					{
						OFFSET -0.863701 1.402801 16.534700
						CHANNELS 3 Xrotation Yrotation Zrotation
						End Site
						{
							OFFSET 0.000000 16.616566 0.000000
						}
					}
				}
			}
		}
	}
	JOINT RightUpLeg
	{
		OFFSET -19.899099 -7.885101 -3.429500
		CHANNELS 3 Xrotation Yrotation Zrotation
		JOINT RightLeg
		{
			OFFSET -1.745560 -36.997807 10.304700
			CHANNELS 3 Xrotation Yrotation Zrotation
			JOINT RightFoot
			{
				OFFSET 1.745558 -29.803308 -13.615400
				CHANNELS 3 Xrotation Yrotation Zrotation
				JOINT RightToeBase
				{
					OFFSET -1.181900 -18.539904 15.226099
					CHANNELS 3 Xrotation Yrotation Zrotation
					JOINT RightToe_End
					{
						OFFSET 0.863701 1.402801 16.534700
						CHANNELS 3 Xrotation Yrotation Zrotation
						End Site
						{
							OFFSET 0.000000 16.616566 0.000000
						}
					}
				}
			}
		}
	}
}
MOTION
Frames: 5
Frame Time: 0.033333
1.609028 84.230003 -1.087227 9.887977 -0.394688 0.670702 8.644879 3.299691 1.005353 1.602652 1.233845 0.809977 1.612076 1.226180 0.796964 -0.717368 -0.365289 -0.088594 -15.992263 -3.800733 -4.906862 -0.000000 -0.000000 0.000000 2.578847 4.580124 -8.079620 14.898220 -22.282700 -57.697600 0.000010 -40.211059 -0.000001 -6.256647 -14.402716 -10.876605 -3.434838 1.301856 8.273393 7.200890 21.735127 2.160821 -3.675984 7.773391 17.761028 -0.000002 -0.000000 -0.000002 0.868494 5.320774 -30.344352 3.938117 5.530542 -70.886060 5.548266 5.843254 -87.028392 -0.000001 -0.000002 -0.000001 1.549725 6.253238 -41.680437 6.371102 5.827980 -95.107837 1.990686 4.400197 -48.667908 -0.000004 0.000001 0.000002 0.616336 4.842287 -25.046725 4.819166 5.759666 -79.824817 1.408850 3.811921 -40.555764 -0.000001 -0.000000 0.000009 0.258434 3.857167 -14.781276 3.010629 5.117457 -60.915227 0.952504 3.203758 -33.107778 0.000001 0.000002 -0.000005 2.557412 5.288803 5.269796 -21.322459 18.285274 62.204199 -0.000009 49.049508 0.000031 -13.885880 14.704808 -0.728579 -3.385009 -2.055264 -8.882303 7.631976 -25.248184 -2.937642 -1.693407 -15.851590 -20.120062 0.000001 -0.000001 -0.000001 0.218216 -3.529718 15.513706 2.334881 -4.037969 60.061999 0.871373 -2.714311 35.589684 -0.000001 -0.000001 0.000001 1.003549 -5.106361 37.314577 3.983579 -4.608293 81.674835 1.293398 -3.222760 43.725689 -0.000000 -0.000001 -0.000006 2.686217 -6.472575 64.255394 3.560600 -4.526484 76.366487 1.043143 -2.939299 39.072063 -0.000001 -0.000001 -0.000003 3.428258 -6.753379 74.035262 2.258915 -3.993344 58.977263 3.062993 -4.376385 69.962119 0.000002 0.000003 0.000003 -31.215570 -2.439141 2.395567 70.380202 5.656816 -1.239791 7.795137 -0.412853 -9.155722 -10.983391 0.197363 -2.119115 -0.000000 0.000000 -0.000000 -5.920494 -6.276506 3.684426 37.786376 6.254852 -4.617922 -27.281054 0.497100 -1.722231 -12.873097 0.404577 -2.954903 0.000000 0.000000 -0.000000 
1.416394 87.215912 7.735531 10.432393 -2.115752 2.240491 8.159084 4.641788 -0.757734 1.210344 1.954365 0.070956 1.219615 1.947318 0.045126 -0.616094 -0.392871 0.235406 -15.530409 -4.931485 -4.290469 -0.000000 0.000000 -0.000000 2.732799 7.737158 -8.138324 19.131881 -21.314102 -55.521655 0.000019 -43.812112 0.000022 -5.438567 -13.583683 -13.321780 -3.434843 1.301853 8.273394 7.200882 21.735132 2.160819 -3.675980 7.773384 17.761014 0.000002 -0.000001 -0.000003 0.868491 5.320776 -30.344358 3.938126 5.530540 -70.886066 5.548277 5.843269 -87.028413 -0.000001 0.000000 -0.000002 1.549725 6.253235 -41.680441 6.371095 5.827975 -95.107843 1.990680 4.400201 -48.667912 -0.000002 -0.000001 0.000005 0.616334 4.842300 -25.046727 4.819168 5.759655 -79.824837 1.408854 3.811935 -40.555764 0.000000 0.000003 0.000004 0.258434 3.857173 -14.781274 3.010621 5.117456 -60.915247 0.952499 3.203747 -33.107785 -0.000002 0.000005 0.000002 3.095349 7.051786 3.390211 -20.265970 22.402657 60.833018 0.000044 56.378915 -0.000026 -17.458556 14.216117 -5.512494 -3.750915 -0.924054 -6.071178 7.814806 -26.845114 -3.042919 -1.392155 -17.205180 -21.010009 -0.000002 0.000002 -0.000002 0.298832 -3.789806 18.861313 2.485085 -4.120618 62.173552 1.184195 -3.104751 41.747021 -0.000001 -0.000003 0.000001 1.150750 -5.288968 40.202958 4.182555 -4.632971 84.144208 1.390498 -3.321150 45.426861 0.000003 0.000002 0.000001 2.728583 -6.492616 64.832388 3.907459 -4.596547 80.726259 1.193782 -3.115461 41.924094 -0.000003 0.000001 -0.000007 3.494614 -6.771701 74.882765 2.276927 -4.004102 59.235936 3.090924 -4.386455 70.327903 -0.000000 -0.000000 0.000006 -33.957231 -1.502988 1.754654 62.813480 8.028545 -2.711292 5.345024 1.443490 -10.382977 -10.110516 0.068313 -0.516934 -0.000003 -0.000001 0.000001 0.859919 -8.392165 1.936774 29.666186 8.593658 -6.835447 -18.427678 1.280205 3.587719 -20.263220 1.161447 -6.285272 -0.000000 0.000000 0.000000 
0.961716 89.311478 16.217861 11.448340 -3.332143 3.828631 7.812756 5.515671 -2.584105 0.713770 2.424511 -0.355695 0.719244 2.416418 -0.395450 -0.762501 -0.296489 0.396427 -15.250817 -5.667222 -3.623593 -0.000000 0.000000 -0.000000 3.131404 11.624744 -9.260045 21.041180 -19.689239 -54.307531 0.000011 -47.675424 -0.000016 -2.868146 -12.759166 -15.258540 -3.434843 1.301859 8.273393 7.200886 21.735149 2.160848 -3.675984 7.773382 17.761010 0.000000 -0.000000 -0.000001 0.868488 5.320777 -30.344358 3.938125 5.530547 -70.886060 5.548270 5.843254 -87.028413 0.000003 0.000003 -0.000007 1.549718 6.253246 -41.680406 6.371105 5.827980 -95.107816 1.990687 4.400184 -48.667905 -0.000005 0.000002 0.000002 0.616337 4.842302 -25.046710 4.819166 5.759659 -79.824824 1.408853 3.811943 -40.555768 -0.000001 0.000001 0.000001 0.258431 3.857180 -14.781252 3.010631 5.117452 -60.915247 0.952500 3.203758 -33.107768 -0.000001 0.000005 -0.000001 3.910297 8.125699 1.528784 -17.776735 27.024173 58.218668 0.000070 64.241296 -0.000046 -20.392947 15.568755 -10.604781 -4.123065 0.311450 -2.886343 8.021395 -28.656660 -3.157154 -1.051911 -18.750763 -22.005082 0.000001 -0.000002 0.000003 0.404926 -4.069877 22.544752 2.654972 -4.205673 64.513343 1.585248 -3.502046 48.698596 -0.000001 -0.000001 -0.000001 1.327180 -5.485225 43.453223 4.402179 -4.650201 86.857958 1.500636 -3.425990 47.298100 -0.000002 0.000001 -0.000004 2.779963 -6.516228 65.528855 4.287548 -4.642498 85.442825 1.366596 -3.297460 45.012521 0.000001 0.000002 0.000000 3.572564 -6.791876 75.873976 2.291191 -4.012530 59.439701 3.112506 -4.394072 70.609867 -0.000001 0.000000 0.000001 -37.490557 -0.014349 0.359713 53.149735 8.776155 -3.720512 3.194823 4.582466 -9.551624 -4.540107 -0.183428 2.339826 0.000001 0.000001 -0.000000 3.564061 -10.769564 -2.305104 24.936114 8.361925 -5.080656 -5.212502 2.280836 10.614445 -30.988906 3.358484 -9.794058 -0.000000 -0.000000 0.000000 
0.606933 91.242638 24.458363 12.226400 -3.941878 5.139460 7.448434 5.684818 -4.260064 0.381660 2.600577 -0.811039 0.379490 2.589949 -0.855552 -0.936489 -0.244214 0.920480 -15.474000 -6.267409 -2.909846 -0.000000 0.000000 0.000000 3.370594 15.404081 -9.402796 21.822340 -17.879687 -53.954820 0.000015 -51.595051 -0.000002 0.006394 -10.592910 -16.977134 -3.434848 1.301857 8.273384 7.200874 21.735136 2.160829 -3.675977 7.773392 17.761063 0.000000 -0.000001 -0.000004 0.868484 5.320769 -30.344372 3.938115 5.530550 -70.886053 5.548268 5.843264 -87.028406 0.000004 0.000001 0.000001 1.549717 6.253242 -41.680423 6.371099 5.827972 -95.107837 1.990686 4.400190 -48.667919 0.000001 0.000000 0.000003 0.616328 4.842296 -25.046741 4.819161 5.759654 -79.824831 1.408853 3.811932 -40.555758 -0.000001 0.000000 0.000006 0.258431 3.857172 -14.781267 3.010621 5.117452 -60.915240 0.952503 3.203755 -33.107778 0.000000 0.000001 0.000001 4.649516 9.464880 0.592776 -14.266579 31.042667 55.460699 0.000025 71.489322 -0.000006 -21.182797 17.460527 -16.679505 -4.430539 1.440518 0.125275 8.216881 -30.374507 -3.260390 -0.730547 -20.226243 -22.934290 -0.000001 -0.000002 0.000002 0.523615 -4.331878 26.082968 2.820759 -4.280551 66.753577 2.008496 -3.831978 55.308574 -0.000004 -0.000001 -0.000001 1.505207 -5.662418 46.546691 4.613717 -4.656945 89.464482 1.609552 -3.523194 49.095188 -0.000001 0.000001 -0.000004 2.827760 -6.537510 66.172963 4.657434 -4.657158 90.003233 1.542734 -3.464289 47.998499 0.000001 0.000002 -0.000003 3.645878 -6.809578 76.802185 2.307144 -4.021898 59.667467 3.136950 -4.402574 70.928516 0.000001 -0.000002 0.000002 -38.932662 1.202571 -1.040580 39.310570 9.289325 -3.936074 4.419062 6.933669 -9.564571 0.301163 -0.011861 1.116925 0.000001 0.000001 -0.000000 5.270066 -12.261581 -4.096822 22.072354 5.098137 -3.688831 8.551746 2.993698 6.594741 -38.067455 2.377243 -4.087774 -0.000001 0.000000 0.000000 
0.162719 93.702782 32.583611 12.911075 -3.381289 5.575561 6.404903 5.325232 -5.021296 0.628807 2.516713 -0.981868 0.621112 2.510160 -1.010667 -1.078161 -0.171930 1.460484 -16.311525 -6.697122 -2.184095 0.000000 0.000000 -0.000000 3.530891 18.099581 -9.491300 21.643201 -17.251499 -53.184053 0.000024 -55.354585 0.000014 1.473012 -10.235692 -17.434013 -3.434844 1.301849 8.273350 7.200887 21.735149 2.160845 -3.675989 7.773390 17.761024 -0.000002 0.000000 0.000003 0.868488 5.320773 -30.344376 3.938119 5.530532 -70.886060 5.548256 5.843270 -87.028372 -0.000000 0.000000 -0.000007 1.549720 6.253243 -41.680430 6.371098 5.827972 -95.107837 1.990683 4.400197 -48.667912 -0.000001 0.000003 0.000003 0.616331 4.842297 -25.046743 4.819171 5.759657 -79.824824 1.408852 3.811928 -40.555768 -0.000001 0.000002 0.000004 0.258423 3.857169 -14.781286 3.010627 5.117458 -60.915240 0.952505 3.203755 -33.107778 -0.000002 0.000001 0.000001 5.137453 10.836969 0.071483 -9.410695 34.217199 51.675135 -0.000056 79.526051 0.000063 -18.852896 19.331242 -22.694168 -4.632300 2.271619 2.399715 8.364933 -31.676515 -3.335277 -0.487641 -21.350857 -23.629280 -0.000001 0.000002 0.000001 0.632499 -4.540170 28.975377 2.955964 -4.335979 68.553038 2.358051 -4.051171 60.390661 -0.000003 -0.000003 -0.000001 1.649479 -5.792833 48.942544 4.786948 -4.655362 91.598499 1.700786 -3.600084 50.563986 -0.000002 0.000001 -0.000006 2.858452 -6.550862 66.585342 4.971612 -4.646562 93.875588 1.698692 -3.598337 50.530224 -0.000000 0.000001 -0.000003 3.697324 -6.821261 77.451798 2.330691 -4.035543 60.002570 3.174019 -4.415170 71.410871 0.000001 -0.000001 -0.000001 -37.672554 1.652602 -1.744752 21.899936 9.585993 -3.049539 7.945030 7.363500 -11.810581 0.179756 0.000003 -0.000004 0.000001 0.000002 -0.000001 9.435065 -12.154814 -4.641803 16.305101 2.778138 -4.867000 20.092164 3.185767 10.453909 -32.429663 1.145299 -1.949106 0.000001 -0.000000 0.000000 
